<mxfile host="app.diagrams.net" modified="2024-02-20T18:20:13.714Z" agent="Mozilla/5.0 (X11; Linux x86_64) AppleWebKit/537.36 (KHTML, like Gecko) Chrome/121.0.0.0 Safari/537.36" etag="viIXjW4q46aqsc23hLqa" version="23.1.5" type="github">
  <diagram name="Page-1" id="w_tRbw3NZmXrdn83J785">
    <mxGraphModel dx="1176" dy="630" grid="1" gridSize="10" guides="1" tooltips="1" connect="1" arrows="1" fold="1" page="1" pageScale="1" pageWidth="850" pageHeight="1100" math="0" shadow="0">
      <root>
        <mxCell id="0" />
        <mxCell id="1" parent="0" />
        <mxCell id="VSpz1fqgU8OabCc9TTBg-22" value="main_window:MainWindow" style="shape=umlLifeline;perimeter=lifelinePerimeter;whiteSpace=wrap;html=1;container=1;dropTarget=0;collapsible=0;recursiveResize=0;outlineConnect=0;portConstraint=eastwest;newEdgeStyle={&quot;curved&quot;:0,&quot;rounded&quot;:0};" vertex="1" parent="1">
          <mxGeometry x="612" y="20" width="160" height="300" as="geometry" />
        </mxCell>
        <mxCell id="VSpz1fqgU8OabCc9TTBg-11" value="" style="html=1;points=[[0,0,0,0,5],[0,1,0,0,-5],[1,0,0,0,5],[1,1,0,0,-5]];perimeter=orthogonalPerimeter;outlineConnect=0;targetShapes=umlLifeline;portConstraint=eastwest;newEdgeStyle={&quot;curved&quot;:0,&quot;rounded&quot;:0};" vertex="1" parent="VSpz1fqgU8OabCc9TTBg-22">
          <mxGeometry x="75" y="190" width="10" height="50" as="geometry" />
        </mxCell>
        <mxCell id="VSpz1fqgU8OabCc9TTBg-21" value="command_queue:Queue[Command]" style="shape=umlLifeline;perimeter=lifelinePerimeter;whiteSpace=wrap;html=1;container=1;dropTarget=0;collapsible=0;recursiveResize=0;outlineConnect=0;portConstraint=eastwest;newEdgeStyle={&quot;curved&quot;:0,&quot;rounded&quot;:0};" vertex="1" parent="1">
          <mxGeometry x="390" y="20" width="215" height="300" as="geometry" />
        </mxCell>
        <mxCell id="VSpz1fqgU8OabCc9TTBg-7" value="" style="html=1;points=[[0,0,0,0,5],[0,1,0,0,-5],[1,0,0,0,5],[1,1,0,0,-5]];perimeter=orthogonalPerimeter;outlineConnect=0;targetShapes=umlLifeline;portConstraint=eastwest;newEdgeStyle={&quot;curved&quot;:0,&quot;rounded&quot;:0};" vertex="1" parent="VSpz1fqgU8OabCc9TTBg-21">
          <mxGeometry x="102.5" y="167" width="10" height="15" as="geometry" />
        </mxCell>
        <mxCell id="VSpz1fqgU8OabCc9TTBg-8" value="" style="html=1;points=[[0,0,0,0,5],[0,1,0,0,-5],[1,0,0,0,5],[1,1,0,0,-5]];perimeter=orthogonalPerimeter;outlineConnect=0;targetShapes=umlLifeline;portConstraint=eastwest;newEdgeStyle={&quot;curved&quot;:0,&quot;rounded&quot;:0};" vertex="1" parent="VSpz1fqgU8OabCc9TTBg-21">
          <mxGeometry x="102.5" y="200" width="10" height="40" as="geometry" />
        </mxCell>
        <mxCell id="VSpz1fqgU8OabCc9TTBg-20" value=":EcosObsever" style="shape=umlLifeline;perimeter=lifelinePerimeter;whiteSpace=wrap;html=1;container=1;dropTarget=0;collapsible=0;recursiveResize=0;outlineConnect=0;portConstraint=eastwest;newEdgeStyle={&quot;curved&quot;:0,&quot;rounded&quot;:0};" vertex="1" parent="1">
          <mxGeometry x="240" y="20" width="100" height="300" as="geometry" />
        </mxCell>
        <mxCell id="VSpz1fqgU8OabCc9TTBg-5" value="" style="html=1;points=[[0,0,0,0,5],[0,1,0,0,-5],[1,0,0,0,5],[1,1,0,0,-5]];perimeter=orthogonalPerimeter;outlineConnect=0;targetShapes=umlLifeline;portConstraint=eastwest;newEdgeStyle={&quot;curved&quot;:0,&quot;rounded&quot;:0};" vertex="1" parent="VSpz1fqgU8OabCc9TTBg-20">
          <mxGeometry x="45" y="166" width="10" height="15" as="geometry" />
        </mxCell>
        <mxCell id="VSpz1fqgU8OabCc9TTBg-19" value="ecos:EcosSubject" style="shape=umlLifeline;perimeter=lifelinePerimeter;whiteSpace=wrap;html=1;container=1;dropTarget=0;collapsible=0;recursiveResize=0;outlineConnect=0;portConstraint=eastwest;newEdgeStyle={&quot;curved&quot;:0,&quot;rounded&quot;:0};" vertex="1" parent="1">
          <mxGeometry x="77.5" y="20" width="115" height="300" as="geometry" />
        </mxCell>
        <mxCell id="VSpz1fqgU8OabCc9TTBg-1" value="" style="html=1;points=[[0,0,0,0,5],[0,1,0,0,-5],[1,0,0,0,5],[1,1,0,0,-5]];perimeter=orthogonalPerimeter;outlineConnect=0;targetShapes=umlLifeline;portConstraint=eastwest;newEdgeStyle={&quot;curved&quot;:0,&quot;rounded&quot;:0};" vertex="1" parent="1">
          <mxGeometry x="130" y="77" width="10" height="75" as="geometry" />
        </mxCell>
        <mxCell id="VSpz1fqgU8OabCc9TTBg-2" value="_record()" style="html=1;verticalAlign=bottom;endArrow=block;curved=0;rounded=0;strokeColor=#FF0000;" edge="1" parent="1">
          <mxGeometry x="-0.0588" width="80" relative="1" as="geometry">
            <mxPoint x="140" y="145" as="sourcePoint" />
            <mxPoint x="140" y="88" as="targetPoint" />
            <Array as="points">
              <mxPoint x="180" y="145" />
              <mxPoint x="180" y="88" />
              <mxPoint x="160" y="88" />
            </Array>
            <mxPoint as="offset" />
          </mxGeometry>
        </mxCell>
        <mxCell id="VSpz1fqgU8OabCc9TTBg-3" value="" style="html=1;points=[[0,0,0,0,5],[0,1,0,0,-5],[1,0,0,0,5],[1,1,0,0,-5]];perimeter=orthogonalPerimeter;outlineConnect=0;targetShapes=umlLifeline;portConstraint=eastwest;newEdgeStyle={&quot;curved&quot;:0,&quot;rounded&quot;:0};" vertex="1" parent="1">
          <mxGeometry x="130" y="170" width="10" height="30" as="geometry" />
        </mxCell>
        <mxCell id="VSpz1fqgU8OabCc9TTBg-4" value="notify(self.observers, Tuple[int, int])" style="html=1;verticalAlign=bottom;endArrow=block;curved=0;rounded=0;strokeColor=#FF0000;" edge="1" parent="1" source="VSpz1fqgU8OabCc9TTBg-1" target="VSpz1fqgU8OabCc9TTBg-3">
          <mxGeometry x="0.125" width="80" relative="1" as="geometry">
            <mxPoint x="160" y="140" as="sourcePoint" />
            <mxPoint x="210" y="190" as="targetPoint" />
            <Array as="points">
              <mxPoint x="200" y="140" />
              <mxPoint x="200" y="180" />
            </Array>
            <mxPoint as="offset" />
          </mxGeometry>
        </mxCell>
        <mxCell id="VSpz1fqgU8OabCc9TTBg-6" value="update()" style="html=1;verticalAlign=bottom;endArrow=block;curved=0;rounded=0;strokeColor=#FF0000;" edge="1" parent="1" source="VSpz1fqgU8OabCc9TTBg-3" target="VSpz1fqgU8OabCc9TTBg-5">
          <mxGeometry x="0.1034" y="-17" relative="1" as="geometry">
            <mxPoint x="160" y="193" as="sourcePoint" />
            <Array as="points">
              <mxPoint x="270" y="193" />
            </Array>
            <mxPoint x="395" y="210" as="targetPoint" />
            <mxPoint as="offset" />
          </mxGeometry>
        </mxCell>
        <mxCell id="VSpz1fqgU8OabCc9TTBg-9" value="put(us_cmd:UpdateStateCommand)" style="html=1;verticalAlign=bottom;endArrow=block;curved=0;rounded=0;strokeColor=#FF0000;" edge="1" parent="1" source="VSpz1fqgU8OabCc9TTBg-5" target="VSpz1fqgU8OabCc9TTBg-7">
          <mxGeometry width="80" relative="1" as="geometry">
            <mxPoint x="490" y="203" as="sourcePoint" />
            <mxPoint x="570" y="203" as="targetPoint" />
          </mxGeometry>
        </mxCell>
        <mxCell id="VSpz1fqgU8OabCc9TTBg-10" value="send ECoS update" style="html=1;verticalAlign=bottom;endArrow=block;curved=0;rounded=0;strokeColor=#00CC00;" edge="1" parent="1" target="VSpz1fqgU8OabCc9TTBg-1">
          <mxGeometry width="80" relative="1" as="geometry">
            <mxPoint x="20" y="120" as="sourcePoint" />
            <mxPoint x="-20" y="120" as="targetPoint" />
          </mxGeometry>
        </mxCell>
        <mxCell id="VSpz1fqgU8OabCc9TTBg-12" value="_callback()" style="html=1;align=left;spacingLeft=2;endArrow=block;rounded=0;edgeStyle=orthogonalEdgeStyle;curved=0;rounded=0;" edge="1" parent="1" target="VSpz1fqgU8OabCc9TTBg-11">
          <mxGeometry x="0.6438" y="-10" relative="1" as="geometry">
            <mxPoint x="720" y="190" as="sourcePoint" />
            <Array as="points">
              <mxPoint x="730" y="190" />
              <mxPoint x="730" y="220" />
            </Array>
            <mxPoint as="offset" />
          </mxGeometry>
        </mxCell>
        <mxCell id="VSpz1fqgU8OabCc9TTBg-17" value="get()" style="html=1;verticalAlign=bottom;endArrow=block;curved=0;rounded=0;" edge="1" parent="1" source="VSpz1fqgU8OabCc9TTBg-11" target="VSpz1fqgU8OabCc9TTBg-8">
          <mxGeometry width="80" relative="1" as="geometry">
            <mxPoint x="705" y="230" as="sourcePoint" />
            <mxPoint x="520" y="230" as="targetPoint" />
            <Array as="points">
              <mxPoint x="610" y="230" />
            </Array>
          </mxGeometry>
        </mxCell>
        <mxCell id="VSpz1fqgU8OabCc9TTBg-18" value="return us_cmd" style="html=1;verticalAlign=bottom;endArrow=open;dashed=1;endSize=8;curved=0;rounded=0;" edge="1" parent="1" source="VSpz1fqgU8OabCc9TTBg-8" target="VSpz1fqgU8OabCc9TTBg-11">
          <mxGeometry relative="1" as="geometry">
            <mxPoint x="520" y="250" as="sourcePoint" />
            <mxPoint x="705" y="250" as="targetPoint" />
            <Array as="points">
              <mxPoint x="610" y="250" />
            </Array>
          </mxGeometry>
        </mxCell>
      </root>
    </mxGraphModel>
  </diagram>
</mxfile>
